<mxfile host="65bd71144e">
    <diagram id="AEGOu0vzymdToiaflrXc" name="Page-1">
        <mxGraphModel dx="1056" dy="688" grid="1" gridSize="10" guides="1" tooltips="1" connect="1" arrows="1" fold="1" page="1" pageScale="1" pageWidth="850" pageHeight="1100" math="0" shadow="0">
            <root>
                <mxCell id="0"/>
                <mxCell id="1" parent="0"/>
                <mxCell id="2" value="admin" style="shape=umlFrame;whiteSpace=wrap;html=1;width=100;height=30;" vertex="1" parent="1">
                    <mxGeometry x="40" y="80" width="770" height="560" as="geometry"/>
                </mxCell>
                <mxCell id="3" value="sidebar" style="shape=umlFrame;whiteSpace=wrap;html=1;width=100;height=30;fillColor=#60a917;fontColor=#ffffff;strokeColor=#2D7600;" vertex="1" parent="1">
                    <mxGeometry x="50" y="120" width="210" height="510" as="geometry"/>
                </mxCell>
                <mxCell id="4" value="Component Router" style="shape=umlFrame;whiteSpace=wrap;html=1;width=130;height=30;fillColor=#0050ef;fontColor=#ffffff;strokeColor=#001DBC;" vertex="1" parent="1">
                    <mxGeometry x="280" y="120" width="520" height="510" as="geometry"/>
                </mxCell>
                <mxCell id="5" value="Components Links" style="shape=umlFrame;whiteSpace=wrap;html=1;width=150;height=30;fillColor=#1ba1e2;fontColor=#ffffff;strokeColor=#006EAF;" vertex="1" parent="1">
                    <mxGeometry x="60" y="170" width="190" height="330" as="geometry"/>
                </mxCell>
                <mxCell id="6" value="Account" style="shape=umlFrame;whiteSpace=wrap;html=1;width=150;height=30;fillColor=#e51400;fontColor=#ffffff;strokeColor=#B20000;" vertex="1" parent="1">
                    <mxGeometry x="60" y="520" width="190" height="90" as="geometry"/>
                </mxCell>
                <mxCell id="7" value="Admin Plan" style="shape=partialRectangle;html=1;top=1;align=left;dashed=1;" vertex="1" parent="1">
                    <mxGeometry x="20" y="20" width="820" height="20" as="geometry"/>
                </mxCell>
                <mxCell id="8" value="Antoine Fusilier - Remise Projet 2023 - 3W Academy - DÃ©veloppeur FullStack Web et Mobile" style="shape=partialRectangle;html=1;top=1;align=left;dashed=1;" vertex="1" parent="1">
                    <mxGeometry x="15" y="660" width="820" height="20" as="geometry"/>
                </mxCell>
            </root>
        </mxGraphModel>
    </diagram>
</mxfile>
